<svg width="305" height="50" viewBox="0 0 305 50" fill="none" xmlns="http://www.w3.org/2000/svg">
<g filter="url(#filter0_d_49_76)">
<path d="M269.191 14.7109C268.363 15.7656 267.395 16.293 266.285 16.293C265.043 16.293 264.055 15.7695 263.32 14.7227C262.586 13.6758 262.219 12.3047 262.219 10.6094C262.219 8.82812 262.617 7.39844 263.414 6.32031C264.219 5.24219 265.312 4.70312 266.695 4.70312C268.133 4.70312 269.254 5.32812 270.059 6.57812C270.871 7.82031 271.277 9.54297 271.277 11.7461V12.3906C271.277 14.2812 271.133 15.8125 270.844 16.9844C270.562 18.1562 270.145 19.1016 269.59 19.8203C269.035 20.5391 268.328 21.0859 267.469 21.4609C266.609 21.8281 265.535 22.0117 264.246 22.0117V20.1836H264.609C266.078 20.1523 267.191 19.707 267.949 18.8477C268.715 17.9805 269.129 16.6016 269.191 14.7109ZM266.637 14.5C267.137 14.5 267.625 14.293 268.102 13.8789C268.578 13.457 268.949 12.9062 269.215 12.2266V11.3125C269.215 9.89844 268.969 8.74609 268.477 7.85547C267.984 6.95703 267.391 6.50781 266.695 6.50781C265.945 6.50781 265.348 6.87891 264.902 7.62109C264.465 8.35547 264.246 9.3125 264.246 10.4922C264.246 11.6719 264.461 12.6367 264.891 13.3867C265.32 14.1289 265.902 14.5 266.637 14.5ZM275.674 13.4453L276.413 4.9375H283.83V6.94141H278.159L277.76 11.5938C278.463 11.1016 279.221 10.8555 280.034 10.8555C281.362 10.8555 282.405 11.3711 283.163 12.4023C283.92 13.4336 284.299 14.8203 284.299 16.5625C284.299 18.3281 283.885 19.7148 283.057 20.7227C282.237 21.7305 281.108 22.2344 279.67 22.2344C278.389 22.2344 277.346 21.8164 276.541 20.9805C275.737 20.1445 275.276 18.9883 275.159 17.5117H277.104C277.221 18.4883 277.498 19.2266 277.936 19.7266C278.381 20.2188 278.959 20.4648 279.67 20.4648C280.475 20.4648 281.104 20.1172 281.557 19.4219C282.01 18.7188 282.237 17.7734 282.237 16.5859C282.237 15.4688 281.991 14.5586 281.498 13.8555C281.014 13.1523 280.358 12.8008 279.53 12.8008C278.842 12.8008 278.291 12.9805 277.877 13.3398L277.327 13.8906L275.674 13.4453ZM287.173 8.21875C287.173 7.20312 287.446 6.36328 287.993 5.69922C288.548 5.02734 289.266 4.69141 290.149 4.69141C291.024 4.69141 291.739 5.01953 292.294 5.67578C292.856 6.33203 293.138 7.19531 293.138 8.26562V9.12109C293.138 10.1445 292.86 10.9844 292.305 11.6406C291.759 12.2969 291.048 12.625 290.173 12.625C289.298 12.625 288.579 12.2969 288.016 11.6406C287.454 10.9844 287.173 10.1211 287.173 9.05078V8.21875ZM288.684 9.12109C288.684 9.74609 288.821 10.2539 289.095 10.6445C289.368 11.0273 289.727 11.2188 290.173 11.2188C290.602 11.2188 290.95 11.0312 291.216 10.6562C291.489 10.2734 291.626 9.74609 291.626 9.07422V8.21875C291.626 7.58594 291.489 7.07813 291.216 6.69531C290.942 6.30469 290.587 6.10938 290.149 6.10938C289.704 6.10938 289.348 6.30469 289.083 6.69531C288.817 7.08594 288.684 7.60547 288.684 8.25391V9.12109ZM294.063 17.8164C294.063 16.793 294.341 15.9531 294.895 15.2969C295.45 14.6328 296.165 14.3008 297.04 14.3008C297.915 14.3008 298.634 14.6289 299.196 15.2852C299.759 15.9414 300.04 16.8125 300.04 17.8984V18.7305C300.04 19.7617 299.759 20.6055 299.196 21.2617C298.634 21.918 297.923 22.2461 297.063 22.2461C296.188 22.2461 295.47 21.918 294.907 21.2617C294.345 20.6055 294.063 19.7422 294.063 18.6719V17.8164ZM295.575 18.7305C295.575 19.3633 295.712 19.875 295.985 20.2656C296.259 20.6484 296.618 20.8398 297.063 20.8398C297.501 20.8398 297.852 20.6445 298.118 20.2539C298.384 19.8633 298.516 19.3438 298.516 18.6953V17.8164C298.516 17.1836 298.38 16.6758 298.106 16.293C297.833 15.9102 297.477 15.7188 297.04 15.7188C296.61 15.7188 296.259 15.9102 295.985 16.293C295.712 16.668 295.575 17.1875 295.575 17.8516V18.7305ZM290.595 20.7109L289.458 19.9375L296.454 6.60156L297.602 7.375L290.595 20.7109Z" fill="#242121"/>
<path d="M244.34 9.23264C240.296 12.299 238.898 15.0469 230.237 16.5457C219.576 18.392 208.963 13.9867 203.71 10.3747C201.897 9.12805 197.5 8.88833 195.807 10.3747C188.385 16.89 171.949 15.299 164.936 9.01111C163.212 7.46431 157.381 7.74041 156.664 9.51004C152.723 19.2573 135.029 20.2889 123.178 13.2241C124.472 11.3219 117.724 10.0272 115.885 11.889C105.937 21.9605 86.5158 20.8353 75.2436 11.8475C73.2872 10.2877 68.9044 10.8347 67.6405 12.3061C58.4795 22.9759 44.2108 17.9002 36.2038 10.556C34.6444 9.1248 30.1969 9.62047 29.2567 10.975C24.881 17.283 17.672 18.4608 5.52718 20.0927C3.24009 20.4007 3.59335 22.2327 6.10846 22.078C20.0239 21.2218 27.6241 20.0791 33.3116 15.2958C44.9962 23.7177 61.3084 25.438 72.2541 16.5762C86.4468 24.7767 109.246 25.7115 120.542 15.9552C133.09 23.8334 154.132 23.4455 162.559 14.8605C173.43 20.7794 189.252 21.611 200.199 14.9872C216.49 22.5477 249.809 24.2401 250.997 10.0668C251.145 8.37641 246.128 7.87554 244.34 9.23264Z" fill="#00B2A0"/>
<path d="M11.417 39H10.6309V34.2354H5.95508V39H5.17578V29.0469H5.95508V33.5107H10.6309V29.0469H11.417V39ZM18.1352 39C18.0668 38.763 18.0212 38.4212 17.9984 37.9746C17.7706 38.3438 17.4766 38.6309 17.1166 38.8359C16.7611 39.0365 16.3738 39.1367 15.9545 39.1367C15.3165 39.1367 14.8197 38.9567 14.4643 38.5967C14.1088 38.2367 13.9311 37.724 13.9311 37.0586C13.9311 36.334 14.1771 35.7598 14.6693 35.3359C15.1661 34.9121 15.8497 34.6979 16.7201 34.6934H17.9916V33.6611C17.9916 33.1325 17.8594 32.7542 17.5951 32.5264C17.3354 32.2939 16.9525 32.1777 16.4467 32.1777C15.9773 32.1777 15.5922 32.3145 15.2914 32.5879C14.9906 32.8613 14.8402 33.2145 14.8402 33.6475L14.0814 33.6406C14.0814 33.0345 14.3093 32.5218 14.765 32.1025C15.2208 31.6787 15.7927 31.4668 16.4809 31.4668C17.2237 31.4668 17.7865 31.6536 18.1693 32.0273C18.5521 32.401 18.7436 32.9456 18.7436 33.6611V37.291C18.7436 38.0156 18.8096 38.5579 18.9418 38.918V39H18.1352ZM16.0502 38.4053C16.4968 38.4053 16.891 38.2891 17.2328 38.0566C17.5792 37.8242 17.8321 37.5143 17.9916 37.127V35.3291H16.7885C16.0958 35.3382 15.574 35.4932 15.223 35.7939C14.8721 36.0902 14.6967 36.4912 14.6967 36.9971C14.6967 37.9359 15.1479 38.4053 16.0502 38.4053ZM23.2742 37.749L25.0379 31.6035H25.8514L23.2469 40.1826L23.1033 40.5928C22.7524 41.5225 22.2146 41.9873 21.49 41.9873C21.3169 41.9873 21.1346 41.9554 20.9432 41.8916L20.9363 41.1943C21.0411 41.2262 21.1574 41.2422 21.285 41.2422C21.6131 41.2422 21.882 41.1442 22.0916 40.9482C22.3012 40.7523 22.4744 40.4355 22.6111 39.998L22.9256 38.9521L20.6014 31.6035H21.4354L23.2742 37.749ZM32.2482 39H31.4826V35.9238C30.9449 36.1517 30.4162 36.2656 29.8967 36.2656C29.0673 36.2656 28.4634 36.0446 28.0852 35.6025C27.7115 35.1559 27.5223 34.4609 27.5178 33.5176V31.6035H28.2766V33.5723C28.2857 34.2832 28.4133 34.7913 28.6594 35.0967C28.91 35.402 29.3225 35.5547 29.8967 35.5547C30.4162 35.5365 30.9449 35.4225 31.4826 35.2129V31.6035H32.2482V39ZM39.0074 31.6035H39.7662V39H39.0074V32.9502L35.7467 39H34.9879V31.6035H35.7467V37.6602L39.0074 31.6035ZM47.291 31.6035V39H46.5322V32.3213H44.0713L43.9619 35.0625C43.9027 36.5117 43.7386 37.5257 43.4697 38.1045C43.2054 38.6787 42.7747 38.9772 42.1777 39H41.8291V38.2549L42.0479 38.248C42.4398 38.2298 42.7178 38.002 42.8818 37.5645C43.0459 37.1224 43.1553 36.3454 43.21 35.2334L43.3398 31.6035H47.291ZM54.057 31.6035H54.8158V39H54.057V32.9502L50.7963 39H50.0375V31.6035H50.7963V37.6602L54.057 31.6035ZM59.8387 38.4326C60.3673 38.4326 60.7729 38.2845 61.0555 37.9883C61.338 37.6921 61.4907 37.266 61.5135 36.71H62.2449C62.2085 37.4665 61.9669 38.0612 61.5203 38.4941C61.0737 38.9225 60.5132 39.1367 59.8387 39.1367C58.9591 39.1367 58.2938 38.8564 57.8426 38.2959C57.396 37.7308 57.1681 36.8945 57.159 35.7871V34.8848C57.159 33.7546 57.3823 32.9023 57.8289 32.3281C58.2801 31.7539 58.9477 31.4668 59.8318 31.4668C60.5656 31.4668 61.1443 31.6992 61.5682 32.1641C61.992 32.6243 62.2176 33.2692 62.2449 34.0986H61.5135C61.4907 33.488 61.3357 33.0163 61.0486 32.6836C60.7615 32.3464 60.3559 32.1777 59.8318 32.1777C59.1756 32.1777 58.6925 32.3988 58.3826 32.8408C58.0773 33.2829 57.9246 33.9619 57.9246 34.8779V35.7188C57.9246 36.6667 58.0796 37.3571 58.3895 37.79C58.6993 38.2184 59.1824 38.4326 59.8387 38.4326ZM65.2922 34.2832H67.0217C67.7235 34.2832 68.2818 34.4928 68.6965 34.9121C69.1112 35.3314 69.3186 35.9033 69.3186 36.6279C69.3186 37.348 69.1112 37.9245 68.6965 38.3574C68.2863 38.7858 67.7281 39 67.0217 39H64.5402V31.6035H65.2922V34.2832ZM65.2922 34.9941V38.2959H67.0354C67.5139 38.2959 67.8876 38.1478 68.1564 37.8516C68.4253 37.5553 68.5598 37.1543 68.5598 36.6484C68.5598 36.1471 68.423 35.7461 68.1496 35.4453C67.8762 35.1445 67.507 34.9941 67.0422 34.9941H65.2922ZM77.1221 35.623H76.2129V39H75.4473V31.6035H76.2129V34.8779H77.1084L79.3506 31.6035H80.2939L77.7441 35.1787L80.5605 39H79.5693L77.1221 35.623ZM86.3148 39C86.2465 38.763 86.2009 38.4212 86.1781 37.9746C85.9503 38.3438 85.6563 38.6309 85.2963 38.8359C84.9408 39.0365 84.5534 39.1367 84.1342 39.1367C83.4962 39.1367 82.9994 38.9567 82.6439 38.5967C82.2885 38.2367 82.1107 37.724 82.1107 37.0586C82.1107 36.334 82.3568 35.7598 82.849 35.3359C83.3458 34.9121 84.0294 34.6979 84.8998 34.6934H86.1713V33.6611C86.1713 33.1325 86.0391 32.7542 85.7748 32.5264C85.515 32.2939 85.1322 32.1777 84.6264 32.1777C84.157 32.1777 83.7719 32.3145 83.4711 32.5879C83.1703 32.8613 83.0199 33.2145 83.0199 33.6475L82.2611 33.6406C82.2611 33.0345 82.489 32.5218 82.9447 32.1025C83.4005 31.6787 83.9724 31.4668 84.6605 31.4668C85.4034 31.4668 85.9662 31.6536 86.349 32.0273C86.7318 32.401 86.9232 32.9456 86.9232 33.6611V37.291C86.9232 38.0156 86.9893 38.5579 87.1215 38.918V39H86.3148ZM84.2299 38.4053C84.6765 38.4053 85.0707 38.2891 85.4125 38.0566C85.7589 37.8242 86.0118 37.5143 86.1713 37.127V35.3291H84.9682C84.2755 35.3382 83.7536 35.4932 83.4027 35.7939C83.0518 36.0902 82.8764 36.4912 82.8764 36.9971C82.8764 37.9359 83.3275 38.4053 84.2299 38.4053ZM93.9764 32.3145H91.7478V39H90.9891V32.3145H88.8426V31.6035H93.9764V32.3145ZM99.7648 39C99.6965 38.763 99.6509 38.4212 99.6281 37.9746C99.4003 38.3438 99.1063 38.6309 98.7463 38.8359C98.3908 39.0365 98.0035 39.1367 97.5842 39.1367C96.9462 39.1367 96.4494 38.9567 96.0939 38.5967C95.7385 38.2367 95.5607 37.724 95.5607 37.0586C95.5607 36.334 95.8068 35.7598 96.299 35.3359C96.7958 34.9121 97.4794 34.6979 98.3498 34.6934H99.6213V33.6611C99.6213 33.1325 99.4891 32.7542 99.2248 32.5264C98.965 32.2939 98.5822 32.1777 98.0764 32.1777C97.607 32.1777 97.2219 32.3145 96.9211 32.5879C96.6203 32.8613 96.4699 33.2145 96.4699 33.6475L95.7111 33.6406C95.7111 33.0345 95.939 32.5218 96.3947 32.1025C96.8505 31.6787 97.4224 31.4668 98.1105 31.4668C98.8534 31.4668 99.4162 31.6536 99.799 32.0273C100.182 32.401 100.373 32.9456 100.373 33.6611V37.291C100.373 38.0156 100.439 38.5579 100.571 38.918V39H99.7648ZM97.6799 38.4053C98.1265 38.4053 98.5207 38.2891 98.8625 38.0566C99.2089 37.8242 99.4618 37.5143 99.6213 37.127V35.3291H98.4182C97.7255 35.3382 97.2036 35.4932 96.8527 35.7939C96.5018 36.0902 96.3264 36.4912 96.3264 36.9971C96.3264 37.9359 96.7775 38.4053 97.6799 38.4053ZM107.426 32.3145H105.198V39H104.439V32.3145H102.293V31.6035H107.426V32.3145ZM110.248 34.2832H111.978C112.679 34.2832 113.238 34.4928 113.652 34.9121C114.067 35.3314 114.274 35.9033 114.274 36.6279C114.274 37.348 114.067 37.9245 113.652 38.3574C113.242 38.7858 112.684 39 111.978 39H109.496V31.6035H110.248V34.2832ZM110.248 34.9941V38.2959H111.991C112.47 38.2959 112.843 38.1478 113.112 37.8516C113.381 37.5553 113.516 37.1543 113.516 36.6484C113.516 36.1471 113.379 35.7461 113.105 35.4453C112.832 35.1445 112.463 34.9941 111.998 34.9941H110.248ZM118.942 38.4326C119.47 38.4326 119.876 38.2845 120.159 37.9883C120.441 37.6921 120.594 37.266 120.617 36.71H121.348C121.312 37.4665 121.07 38.0612 120.623 38.4941C120.177 38.9225 119.616 39.1367 118.942 39.1367C118.062 39.1367 117.397 38.8564 116.946 38.2959C116.499 37.7308 116.271 36.8945 116.262 35.7871V34.8848C116.262 33.7546 116.485 32.9023 116.932 32.3281C117.383 31.7539 118.051 31.4668 118.935 31.4668C119.669 31.4668 120.247 31.6992 120.671 32.1641C121.095 32.6243 121.321 33.2692 121.348 34.0986H120.617C120.594 33.488 120.439 33.0163 120.152 32.6836C119.865 32.3464 119.459 32.1777 118.935 32.1777C118.279 32.1777 117.796 32.3988 117.486 32.8408C117.18 33.2829 117.028 33.9619 117.028 34.8779V35.7188C117.028 36.6667 117.183 37.3571 117.493 37.79C117.802 38.2184 118.286 38.4326 118.942 38.4326ZM128.135 31.6035V39H127.376V36.0264H125.53L124.006 39H123.172L124.744 35.917C124.311 35.7712 123.981 35.5137 123.753 35.1445C123.525 34.7708 123.411 34.3288 123.411 33.8184C123.411 33.1484 123.614 32.613 124.019 32.2119C124.425 31.8063 124.979 31.6035 125.68 31.6035H128.135ZM124.17 33.832C124.17 34.2695 124.284 34.625 124.512 34.8984C124.744 35.1719 125.063 35.3109 125.469 35.3154H127.376V32.3145H125.66C125.195 32.3145 124.831 32.4535 124.566 32.7314C124.302 33.0094 124.17 33.3763 124.17 33.832Z" fill="#242121"/>
</g>
<defs>
<filter id="filter0_d_49_76" x="0" y="4.69141" width="304.04" height="45.2959" filterUnits="userSpaceOnUse" color-interpolation-filters="sRGB">
<feFlood flood-opacity="0" result="BackgroundImageFix"/>
<feColorMatrix in="SourceAlpha" type="matrix" values="0 0 0 0 0 0 0 0 0 0 0 0 0 0 0 0 0 0 127 0" result="hardAlpha"/>
<feOffset dy="4"/>
<feGaussianBlur stdDeviation="2"/>
<feComposite in2="hardAlpha" operator="out"/>
<feColorMatrix type="matrix" values="0 0 0 0 0 0 0 0 0 0 0 0 0 0 0 0 0 0 0.25 0"/>
<feBlend mode="normal" in2="BackgroundImageFix" result="effect1_dropShadow_49_76"/>
<feBlend mode="normal" in="SourceGraphic" in2="effect1_dropShadow_49_76" result="shape"/>
</filter>
</defs>
</svg>
